<?xml version="1.0" standalone="no"?>
<!DOCTYPE svg PUBLIC "-//W3C//DTD SVG 1.1//EN" "http://www.w3.org/Graphics/SVG/1.1/DTD/svg11.dtd">
<svg version="1.1" width="1200" height="406" onload="init(evt)" viewBox="0 0 1200 406" xmlns="http://www.w3.org/2000/svg" xmlns:xlink="http://www.w3.org/1999/xlink">
<!-- Flame graph stack visualization. See https://github.com/brendangregg/FlameGraph for latest version, and http://www.brendangregg.com/flamegraphs.html for examples. -->
<!-- NOTES:  -->
<defs>
	<linearGradient id="background" y1="0" y2="1" x1="0" x2="0" >
		<stop stop-color="#eeeeee" offset="5%" />
		<stop stop-color="#eeeeb0" offset="95%" />
	</linearGradient>
</defs>
<style type="text/css">
	text { font-family:Verdana; font-size:12px; fill:rgb(0,0,0); }
	#search, #ignorecase { opacity:0.1; cursor:pointer; }
	#search:hover, #search.show, #ignorecase:hover, #ignorecase.show { opacity:1; }
	#subtitle { text-anchor:middle; font-color:rgb(160,160,160); }
	#title { text-anchor:middle; font-size:17px}
	#unzoom { cursor:pointer; }
	#frames > *:hover { stroke:black; stroke-width:0.5; cursor:pointer; }
	.hide { display:none; }
	.parent { opacity:0.5; }
</style>
<script type="text/ecmascript">
<![CDATA[
	"use strict";
	var details, searchbtn, unzoombtn, matchedtxt, svg, searching, currentSearchTerm, ignorecase, ignorecaseBtn;
	function init(evt) {
		details = document.getElementById("details").firstChild;
		searchbtn = document.getElementById("search");
		ignorecaseBtn = document.getElementById("ignorecase");
		unzoombtn = document.getElementById("unzoom");
		matchedtxt = document.getElementById("matched");
		svg = document.getElementsByTagName("svg")[0];
		searching = 0;
		currentSearchTerm = null;

		// use GET parameters to restore a flamegraphs state.
		var params = get_params();
		if (params.x && params.y)
			zoom(find_group(document.querySelector('[x="' + params.x + '"][y="' + params.y + '"]')));
                if (params.s) search(params.s);
	}

	// event listeners
	window.addEventListener("click", function(e) {
		var target = find_group(e.target);
		if (target) {
			if (target.nodeName == "a") {
				if (e.ctrlKey === false) return;
				e.preventDefault();
			}
			if (target.classList.contains("parent")) unzoom(true);
			zoom(target);
			if (!document.querySelector('.parent')) {
				// we have basically done a clearzoom so clear the url
				var params = get_params();
				if (params.x) delete params.x;
				if (params.y) delete params.y;
				history.replaceState(null, null, parse_params(params));
				unzoombtn.classList.add("hide");
				return;
			}

			// set parameters for zoom state
			var el = target.querySelector("rect");
			if (el && el.attributes && el.attributes.y && el.attributes._orig_x) {
				var params = get_params()
				params.x = el.attributes._orig_x.value;
				params.y = el.attributes.y.value;
				history.replaceState(null, null, parse_params(params));
			}
		}
		else if (e.target.id == "unzoom") clearzoom();
		else if (e.target.id == "search") search_prompt();
		else if (e.target.id == "ignorecase") toggle_ignorecase();
	}, false)

	// mouse-over for info
	// show
	window.addEventListener("mouseover", function(e) {
		var target = find_group(e.target);
		if (target) details.nodeValue = "Function: " + g_to_text(target);
	}, false)

	// clear
	window.addEventListener("mouseout", function(e) {
		var target = find_group(e.target);
		if (target) details.nodeValue = ' ';
	}, false)

	// ctrl-F for search
	// ctrl-I to toggle case-sensitive search
	window.addEventListener("keydown",function (e) {
		if (e.keyCode === 114 || (e.ctrlKey && e.keyCode === 70)) {
			e.preventDefault();
			search_prompt();
		}
		else if (e.ctrlKey && e.keyCode === 73) {
			e.preventDefault();
			toggle_ignorecase();
		}
	}, false)

	// functions
	function get_params() {
		var params = {};
		var paramsarr = window.location.search.substr(1).split('&');
		for (var i = 0; i < paramsarr.length; ++i) {
			var tmp = paramsarr[i].split("=");
			if (!tmp[0] || !tmp[1]) continue;
			params[tmp[0]]  = decodeURIComponent(tmp[1]);
		}
		return params;
	}
	function parse_params(params) {
		var uri = "?";
		for (var key in params) {
			uri += key + '=' + encodeURIComponent(params[key]) + '&';
		}
		if (uri.slice(-1) == "&")
			uri = uri.substring(0, uri.length - 1);
		if (uri == '?')
			uri = window.location.href.split('?')[0];
		return uri;
	}
	function find_child(node, selector) {
		var children = node.querySelectorAll(selector);
		if (children.length) return children[0];
	}
	function find_group(node) {
		var parent = node.parentElement;
		if (!parent) return;
		if (parent.id == "frames") return node;
		return find_group(parent);
	}
	function orig_save(e, attr, val) {
		if (e.attributes["_orig_" + attr] != undefined) return;
		if (e.attributes[attr] == undefined) return;
		if (val == undefined) val = e.attributes[attr].value;
		e.setAttribute("_orig_" + attr, val);
	}
	function orig_load(e, attr) {
		if (e.attributes["_orig_"+attr] == undefined) return;
		e.attributes[attr].value = e.attributes["_orig_" + attr].value;
		e.removeAttribute("_orig_"+attr);
	}
	function g_to_text(e) {
		var text = find_child(e, "title").firstChild.nodeValue;
		return (text)
	}
	function g_to_func(e) {
		var func = g_to_text(e);
		// if there's any manipulation we want to do to the function
		// name before it's searched, do it here before returning.
		return (func);
	}
	function update_text(e) {
		var r = find_child(e, "rect");
		var t = find_child(e, "text");
		var w = parseFloat(r.attributes.width.value) -3;
		var txt = find_child(e, "title").textContent.replace(/\([^(]*\)$/,"");
		t.attributes.x.value = parseFloat(r.attributes.x.value) + 3;

		// Smaller than this size won't fit anything
		if (w < 2 * 12 * 0.59) {
			t.textContent = "";
			return;
		}

		t.textContent = txt;
		var sl = t.getSubStringLength(0, txt.length);
		// check if only whitespace or if we can fit the entire string into width w
		if (/^ *$/.test(txt) || sl < w)
			return;

		// this isn't perfect, but gives a good starting point
		// and avoids calling getSubStringLength too often
		var start = Math.floor((w/sl) * txt.length);
		for (var x = start; x > 0; x = x-2) {
			if (t.getSubStringLength(0, x + 2) <= w) {
				t.textContent = txt.substring(0, x) + "..";
				return;
			}
		}
		t.textContent = "";
	}

	// zoom
	function zoom_reset(e) {
		if (e.attributes != undefined) {
			orig_load(e, "x");
			orig_load(e, "width");
		}
		if (e.childNodes == undefined) return;
		for (var i = 0, c = e.childNodes; i < c.length; i++) {
			zoom_reset(c[i]);
		}
	}
	function zoom_child(e, x, ratio) {
		if (e.attributes != undefined) {
			if (e.attributes.x != undefined) {
				orig_save(e, "x");
				e.attributes.x.value = (parseFloat(e.attributes.x.value) - x - 10) * ratio + 10;
				if (e.tagName == "text")
					e.attributes.x.value = find_child(e.parentNode, "rect[x]").attributes.x.value + 3;
			}
			if (e.attributes.width != undefined) {
				orig_save(e, "width");
				e.attributes.width.value = parseFloat(e.attributes.width.value) * ratio;
			}
		}

		if (e.childNodes == undefined) return;
		for (var i = 0, c = e.childNodes; i < c.length; i++) {
			zoom_child(c[i], x - 10, ratio);
		}
	}
	function zoom_parent(e) {
		if (e.attributes) {
			if (e.attributes.x != undefined) {
				orig_save(e, "x");
				e.attributes.x.value = 10;
			}
			if (e.attributes.width != undefined) {
				orig_save(e, "width");
				e.attributes.width.value = parseInt(svg.width.baseVal.value) - (10 * 2);
			}
		}
		if (e.childNodes == undefined) return;
		for (var i = 0, c = e.childNodes; i < c.length; i++) {
			zoom_parent(c[i]);
		}
	}
	function zoom(node) {
		var attr = find_child(node, "rect").attributes;
		var width = parseFloat(attr.width.value);
		var xmin = parseFloat(attr.x.value);
		var xmax = parseFloat(xmin + width);
		var ymin = parseFloat(attr.y.value);
		var ratio = (svg.width.baseVal.value - 2 * 10) / width;

		// XXX: Workaround for JavaScript float issues (fix me)
		var fudge = 0.0001;

		unzoombtn.classList.remove("hide");

		var el = document.getElementById("frames").children;
		for (var i = 0; i < el.length; i++) {
			var e = el[i];
			var a = find_child(e, "rect").attributes;
			var ex = parseFloat(a.x.value);
			var ew = parseFloat(a.width.value);
			var upstack;
			// Is it an ancestor
			if (0 == 0) {
				upstack = parseFloat(a.y.value) > ymin;
			} else {
				upstack = parseFloat(a.y.value) < ymin;
			}
			if (upstack) {
				// Direct ancestor
				if (ex <= xmin && (ex+ew+fudge) >= xmax) {
					e.classList.add("parent");
					zoom_parent(e);
					update_text(e);
				}
				// not in current path
				else
					e.classList.add("hide");
			}
			// Children maybe
			else {
				// no common path
				if (ex < xmin || ex + fudge >= xmax) {
					e.classList.add("hide");
				}
				else {
					zoom_child(e, xmin, ratio);
					update_text(e);
				}
			}
		}
		search();
	}
	function unzoom(dont_update_text) {
		unzoombtn.classList.add("hide");
		var el = document.getElementById("frames").children;
		for(var i = 0; i < el.length; i++) {
			el[i].classList.remove("parent");
			el[i].classList.remove("hide");
			zoom_reset(el[i]);
			if(!dont_update_text) update_text(el[i]);
		}
		search();
	}
	function clearzoom() {
		unzoom();

		// remove zoom state
		var params = get_params();
		if (params.x) delete params.x;
		if (params.y) delete params.y;
		history.replaceState(null, null, parse_params(params));
	}

	// search
	function toggle_ignorecase() {
		ignorecase = !ignorecase;
		if (ignorecase) {
			ignorecaseBtn.classList.add("show");
		} else {
			ignorecaseBtn.classList.remove("show");
		}
		reset_search();
		search();
	}
	function reset_search() {
		var el = document.querySelectorAll("#frames rect");
		for (var i = 0; i < el.length; i++) {
			orig_load(el[i], "fill")
		}
		var params = get_params();
		delete params.s;
		history.replaceState(null, null, parse_params(params));
	}
	function search_prompt() {
		if (!searching) {
			var term = prompt("Enter a search term (regexp " +
			    "allowed, eg: ^ext4_)"
			    + (ignorecase ? ", ignoring case" : "")
			    + "\nPress Ctrl-i to toggle case sensitivity", "");
			if (term != null) search(term);
		} else {
			reset_search();
			searching = 0;
			currentSearchTerm = null;
			searchbtn.classList.remove("show");
			searchbtn.firstChild.nodeValue = "Search"
			matchedtxt.classList.add("hide");
			matchedtxt.firstChild.nodeValue = ""
		}
	}
	function search(term) {
		if (term) currentSearchTerm = term;
		if (currentSearchTerm === null) return;

		var re = new RegExp(currentSearchTerm, ignorecase ? 'i' : '');
		var el = document.getElementById("frames").children;
		var matches = new Object();
		var maxwidth = 0;
		for (var i = 0; i < el.length; i++) {
			var e = el[i];
			var func = g_to_func(e);
			var rect = find_child(e, "rect");
			if (func == null || rect == null)
				continue;

			// Save max width. Only works as we have a root frame
			var w = parseFloat(rect.attributes.width.value);
			if (w > maxwidth)
				maxwidth = w;

			if (func.match(re)) {
				// highlight
				var x = parseFloat(rect.attributes.x.value);
				orig_save(rect, "fill");
				rect.attributes.fill.value = "rgb(230,0,230)";

				// remember matches
				if (matches[x] == undefined) {
					matches[x] = w;
				} else {
					if (w > matches[x]) {
						// overwrite with parent
						matches[x] = w;
					}
				}
				searching = 1;
			}
		}
		if (!searching)
			return;
		var params = get_params();
		params.s = currentSearchTerm;
		history.replaceState(null, null, parse_params(params));

		searchbtn.classList.add("show");
		searchbtn.firstChild.nodeValue = "Reset Search";

		// calculate percent matched, excluding vertical overlap
		var count = 0;
		var lastx = -1;
		var lastw = 0;
		var keys = Array();
		for (k in matches) {
			if (matches.hasOwnProperty(k))
				keys.push(k);
		}
		// sort the matched frames by their x location
		// ascending, then width descending
		keys.sort(function(a, b){
			return a - b;
		});
		// Step through frames saving only the biggest bottom-up frames
		// thanks to the sort order. This relies on the tree property
		// where children are always smaller than their parents.
		var fudge = 0.0001;	// JavaScript floating point
		for (var k in keys) {
			var x = parseFloat(keys[k]);
			var w = matches[keys[k]];
			if (x >= lastx + lastw - fudge) {
				count += w;
				lastx = x;
				lastw = w;
			}
		}
		// display matched percent
		matchedtxt.classList.remove("hide");
		var pct = 100 * count / maxwidth;
		if (pct != 100) pct = pct.toFixed(1)
		matchedtxt.firstChild.nodeValue = "Matched: " + pct + "%";
	}
]]>
</script>
<rect x="0.0" y="0" width="1200.0" height="406.0" fill="url(#background)"  />
<text id="title" x="600.00" y="24" >Flame Graph</text>
<text id="details" x="10.00" y="389" > </text>
<text id="unzoom" x="10.00" y="24" class="hide">Reset Zoom</text>
<text id="search" x="1090.00" y="24" >Search</text>
<text id="ignorecase" x="1174.00" y="24" >ic</text>
<text id="matched" x="1090.00" y="389" > </text>
<g id="frames">
<g >
<title>sysvec_apic_timer_interrupt (80,514,458 samples, 0.01%)</title><rect x="1189.9" y="213" width="0.1" height="15.0" fill="rgb(220,69,16)" rx="2" ry="2" />
<text  x="1192.87" y="223.5" ></text>
</g>
<g >
<title>unsigned int* std::__fill_n_a&lt;unsigned int*, unsigned long, unsigned int&gt; (160,980,994 samples, 0.02%)</title><rect x="1154.9" y="181" width="0.2" height="15.0" fill="rgb(252,216,51)" rx="2" ry="2" />
<text  x="1157.86" y="191.5" ></text>
</g>
<g >
<title>tick_nohz_highres_handler (361,996,228 samples, 0.05%)</title><rect x="1018.2" y="149" width="0.6" height="15.0" fill="rgb(215,50,11)" rx="2" ry="2" />
<text  x="1021.17" y="159.5" ></text>
</g>
<g >
<title>read_hpet (120,678,419 samples, 0.02%)</title><rect x="1018.8" y="149" width="0.2" height="15.0" fill="rgb(241,166,39)" rx="2" ry="2" />
<text  x="1021.77" y="159.5" ></text>
</g>
<g >
<title>asm_common_interrupt (79,872,275 samples, 0.01%)</title><rect x="680.0" y="261" width="0.1" height="15.0" fill="rgb(227,105,25)" rx="2" ry="2" />
<text  x="682.98" y="271.5" ></text>
</g>
<g >
<title>ktime_get (603,403,482 samples, 0.08%)</title><rect x="680.1" y="165" width="1.0" height="15.0" fill="rgb(207,10,2)" rx="2" ry="2" />
<text  x="683.11" y="175.5" ></text>
</g>
<g >
<title>__sysvec_apic_timer_interrupt (80,514,458 samples, 0.01%)</title><rect x="1189.9" y="197" width="0.1" height="15.0" fill="rgb(242,173,41)" rx="2" ry="2" />
<text  x="1192.87" y="207.5" ></text>
</g>
<g >
<title>hrtimer_interrupt (381,958,848 samples, 0.05%)</title><rect x="1153.6" y="213" width="0.7" height="15.0" fill="rgb(228,109,26)" rx="2" ry="2" />
<text  x="1156.63" y="223.5" ></text>
</g>
<g >
<title>SecretKey&lt; (21,129,881,247 samples, 2.96%)</title><rect x="1155.1" y="261" width="34.9" height="15.0" fill="rgb(240,165,39)" rx="2" ry="2" />
<text  x="1158.12" y="271.5" >Se..</text>
</g>
<g >
<title>tick_sched_handle (220,987,002 samples, 0.03%)</title><rect x="1153.9" y="165" width="0.4" height="15.0" fill="rgb(219,68,16)" rx="2" ry="2" />
<text  x="1156.90" y="175.5" ></text>
</g>
<g >
<title>sysvec_apic_timer_interrupt (482,674,647 samples, 0.07%)</title><rect x="1018.2" y="213" width="0.8" height="15.0" fill="rgb(220,69,16)" rx="2" ry="2" />
<text  x="1021.17" y="223.5" ></text>
</g>
<g >
<title>timekeeping_advance (120,657,062 samples, 0.02%)</title><rect x="843.0" y="101" width="0.2" height="15.0" fill="rgb(227,104,25)" rx="2" ry="2" />
<text  x="846.01" y="111.5" ></text>
</g>
<g >
<title>__common_interrupt (79,870,487 samples, 0.01%)</title><rect x="680.0" y="229" width="0.1" height="15.0" fill="rgb(237,150,36)" rx="2" ry="2" />
<text  x="682.98" y="239.5" ></text>
</g>
<g >
<title>void std::generate&lt;__gnu_cxx::__normal_iterator&lt;unsigned int*, std::vector&lt;unsigned int, std::allocator&lt;unsigned int&gt; &gt; &gt;, SecretKey&lt; (21,129,881,247 samples, 2.96%)</title><rect x="1155.1" y="277" width="34.9" height="15.0" fill="rgb(235,140,33)" rx="2" ry="2" />
<text  x="1158.12" y="287.5" >vo..</text>
</g>
<g >
<title>read_hpet (397,906,145 samples, 0.06%)</title><rect x="681.2" y="101" width="0.6" height="15.0" fill="rgb(241,166,39)" rx="2" ry="2" />
<text  x="684.17" y="111.5" ></text>
</g>
<g >
<title>timekeeping_advance (120,744,426 samples, 0.02%)</title><rect x="1153.7" y="117" width="0.2" height="15.0" fill="rgb(227,104,25)" rx="2" ry="2" />
<text  x="1156.70" y="127.5" ></text>
</g>
<g >
<title>scheduler_tick (642,774,010 samples, 0.09%)</title><rect x="681.9" y="133" width="1.1" height="15.0" fill="rgb(246,190,45)" rx="2" ry="2" />
<text  x="684.89" y="143.5" ></text>
</g>
<g >
<title>handle_irq_event (79,870,487 samples, 0.01%)</title><rect x="680.0" y="197" width="0.1" height="15.0" fill="rgb(209,19,4)" rx="2" ry="2" />
<text  x="682.98" y="207.5" ></text>
</g>
<g >
<title>std::array&lt;unsigned int, 1024ul&gt;::operator[] (120,696,995 samples, 0.02%)</title><rect x="12.5" y="261" width="0.2" height="15.0" fill="rgb(246,190,45)" rx="2" ry="2" />
<text  x="15.46" y="271.5" ></text>
</g>
<g >
<title>all (714,938,365,887 samples, 100%)</title><rect x="10.0" y="357" width="1180.0" height="15.0" fill="rgb(213,39,9)" rx="2" ry="2" />
<text  x="13.00" y="367.5" ></text>
</g>
<g >
<title>perf_event_task_tick (160,946,256 samples, 0.02%)</title><rect x="681.9" y="117" width="0.3" height="15.0" fill="rgb(205,3,0)" rx="2" ry="2" />
<text  x="684.89" y="127.5" ></text>
</g>
<g >
<title>__sysvec_apic_timer_interrupt (482,674,647 samples, 0.07%)</title><rect x="1018.2" y="197" width="0.8" height="15.0" fill="rgb(242,173,41)" rx="2" ry="2" />
<text  x="1021.17" y="207.5" ></text>
</g>
<g >
<title>double std::normal_distribution&lt;double&gt;::operator (53,548,386,134 samples, 7.49%)</title><rect x="12.9" y="277" width="88.4" height="15.0" fill="rgb(237,148,35)" rx="2" ry="2" />
<text  x="15.92" y="287.5" >double std..</text>
</g>
<g >
<title>tick_do_update_jiffies64 (120,744,426 samples, 0.02%)</title><rect x="1153.7" y="149" width="0.2" height="15.0" fill="rgb(208,14,3)" rx="2" ry="2" />
<text  x="1156.70" y="159.5" ></text>
</g>
<g >
<title>asm_sysvec_apic_timer_interrupt (240,444,205 samples, 0.03%)</title><rect x="843.0" y="245" width="0.4" height="15.0" fill="rgb(232,127,30)" rx="2" ry="2" />
<text  x="846.01" y="255.5" ></text>
</g>
<g >
<title>std::array&lt;unsigned int, 1024ul&gt;::operator[] (81,933,220,688 samples, 11.46%)</title><rect x="1019.2" y="277" width="135.2" height="15.0" fill="rgb(246,190,45)" rx="2" ry="2" />
<text  x="1022.16" y="287.5" >std::array&lt;unsign..</text>
</g>
<g >
<title>main (714,937,750,586 samples, 100.00%)</title><rect x="10.0" y="309" width="1180.0" height="15.0" fill="rgb(243,179,42)" rx="2" ry="2" />
<text  x="13.00" y="319.5" >main</text>
</g>
<g >
<title>update_wall_time (397,906,145 samples, 0.06%)</title><rect x="681.2" y="133" width="0.6" height="15.0" fill="rgb(207,11,2)" rx="2" ry="2" />
<text  x="684.17" y="143.5" ></text>
</g>
<g >
<title>SecretKey&lt; (714,897,523,429 samples, 99.99%)</title><rect x="10.1" y="293" width="1179.9" height="15.0" fill="rgb(240,165,39)" rx="2" ry="2" />
<text  x="13.07" y="303.5" >SecretKey&lt;</text>
</g>
<g >
<title>std::__array_traits&lt;unsigned int, 2048ul&gt;::_S_ref (120,649,994 samples, 0.02%)</title><rect x="12.7" y="245" width="0.2" height="15.0" fill="rgb(213,38,9)" rx="2" ry="2" />
<text  x="15.72" y="255.5" ></text>
</g>
<g >
<title>ktime_get (321,157,325 samples, 0.04%)</title><rect x="682.2" y="101" width="0.5" height="15.0" fill="rgb(207,10,2)" rx="2" ry="2" />
<text  x="685.16" y="111.5" ></text>
</g>
<g >
<title>tick_sched_do_timer (120,657,062 samples, 0.02%)</title><rect x="843.0" y="149" width="0.2" height="15.0" fill="rgb(227,104,25)" rx="2" ry="2" />
<text  x="846.01" y="159.5" ></text>
</g>
<g >
<title>__hrtimer_run_queues (160,878,583 samples, 0.02%)</title><rect x="843.0" y="181" width="0.3" height="15.0" fill="rgb(237,150,35)" rx="2" ry="2" />
<text  x="846.01" y="191.5" ></text>
</g>
<g >
<title>hrtimer_active (80,491,674 samples, 0.01%)</title><rect x="682.8" y="101" width="0.1" height="15.0" fill="rgb(212,34,8)" rx="2" ry="2" />
<text  x="685.76" y="111.5" ></text>
</g>
<g >
<title>sysvec_apic_timer_interrupt (381,961,138 samples, 0.05%)</title><rect x="1153.6" y="245" width="0.7" height="15.0" fill="rgb(220,69,16)" rx="2" ry="2" />
<text  x="1156.63" y="255.5" ></text>
</g>
<g >
<title>sysvec_apic_timer_interrupt (240,444,205 samples, 0.03%)</title><rect x="843.0" y="229" width="0.4" height="15.0" fill="rgb(220,69,16)" rx="2" ry="2" />
<text  x="846.01" y="239.5" ></text>
</g>
<g >
<title>hrtimer_interrupt (241,501,024 samples, 0.03%)</title><rect x="726.3" y="197" width="0.4" height="15.0" fill="rgb(228,109,26)" rx="2" ry="2" />
<text  x="729.27" y="207.5" ></text>
</g>
<g >
<title>[libstdc++.so.6.0.30] (21,129,881,247 samples, 2.96%)</title><rect x="1155.1" y="245" width="34.9" height="15.0" fill="rgb(235,140,33)" rx="2" ry="2" />
<text  x="1158.12" y="255.5" >[l..</text>
</g>
<g >
<title>__sysvec_apic_timer_interrupt (2,086,584,466 samples, 0.29%)</title><rect x="680.1" y="229" width="3.5" height="15.0" fill="rgb(242,173,41)" rx="2" ry="2" />
<text  x="683.11" y="239.5" ></text>
</g>
<g >
<title>[libstdc++.so.6.0.30] (53,508,157,781 samples, 7.48%)</title><rect x="12.9" y="213" width="88.3" height="15.0" fill="rgb(235,140,33)" rx="2" ry="2" />
<text  x="15.92" y="223.5" >[libstdc++..</text>
</g>
<g >
<title>tick_sched_handle (156,432,606 samples, 0.02%)</title><rect x="100.8" y="101" width="0.2" height="15.0" fill="rgb(219,68,16)" rx="2" ry="2" />
<text  x="103.78" y="111.5" ></text>
</g>
<g >
<title>timekeeping_advance (397,906,145 samples, 0.06%)</title><rect x="681.2" y="117" width="0.6" height="15.0" fill="rgb(227,104,25)" rx="2" ry="2" />
<text  x="684.17" y="127.5" ></text>
</g>
<g >
<title>tick_do_update_jiffies64 (397,906,145 samples, 0.06%)</title><rect x="681.2" y="149" width="0.6" height="15.0" fill="rgb(208,14,3)" rx="2" ry="2" />
<text  x="684.17" y="159.5" ></text>
</g>
<g >
<title>unsigned int* std::__uninitialized_default_n_1&lt;true&gt;::__uninit_default_n&lt;unsigned int*, unsigned long&gt; (160,980,994 samples, 0.02%)</title><rect x="1154.9" y="213" width="0.2" height="15.0" fill="rgb(225,93,22)" rx="2" ry="2" />
<text  x="1157.86" y="223.5" ></text>
</g>
<g >
<title>clockevents_program_event (160,988,485 samples, 0.02%)</title><rect x="683.3" y="181" width="0.3" height="15.0" fill="rgb(244,182,43)" rx="2" ry="2" />
<text  x="686.29" y="191.5" ></text>
</g>
<g >
<title>tick_sched_do_timer (120,744,426 samples, 0.02%)</title><rect x="1153.7" y="165" width="0.2" height="15.0" fill="rgb(227,104,25)" rx="2" ry="2" />
<text  x="1156.70" y="175.5" ></text>
</g>
<g >
<title>perf_adjust_freq_unthr_context (160,946,256 samples, 0.02%)</title><rect x="681.9" y="101" width="0.3" height="15.0" fill="rgb(236,146,35)" rx="2" ry="2" />
<text  x="684.89" y="111.5" ></text>
</g>
<g >
<title>update_wall_time (120,687,334 samples, 0.02%)</title><rect x="726.3" y="117" width="0.2" height="15.0" fill="rgb(207,11,2)" rx="2" ry="2" />
<text  x="729.27" y="127.5" ></text>
</g>
<g >
<title>tick_nohz_highres_handler (196,669,914 samples, 0.03%)</title><rect x="100.7" y="117" width="0.3" height="15.0" fill="rgb(215,50,11)" rx="2" ry="2" />
<text  x="103.71" y="127.5" ></text>
</g>
<g >
<title>ktime_get (120,731,105 samples, 0.02%)</title><rect x="1018.4" y="69" width="0.2" height="15.0" fill="rgb(207,10,2)" rx="2" ry="2" />
<text  x="1021.37" y="79.5" ></text>
</g>
<g >
<title>std::__array_traits&lt;unsigned int, 1024ul&gt;::_S_ref (80,440,925 samples, 0.01%)</title><rect x="1154.3" y="261" width="0.1" height="15.0" fill="rgb(208,16,4)" rx="2" ry="2" />
<text  x="1157.26" y="271.5" ></text>
</g>
<g >
<title>tick_sched_handle (281,503,845 samples, 0.04%)</title><rect x="1018.3" y="133" width="0.5" height="15.0" fill="rgb(219,68,16)" rx="2" ry="2" />
<text  x="1021.30" y="143.5" ></text>
</g>
<g >
<title>update_process_times (220,987,002 samples, 0.03%)</title><rect x="1153.9" y="149" width="0.4" height="15.0" fill="rgb(250,209,50)" rx="2" ry="2" />
<text  x="1156.90" y="159.5" ></text>
</g>
<g >
<title>sysvec_apic_timer_interrupt (317,267,534 samples, 0.04%)</title><rect x="100.7" y="181" width="0.5" height="15.0" fill="rgb(220,69,16)" rx="2" ry="2" />
<text  x="103.71" y="191.5" ></text>
</g>
<g >
<title>update_process_times (281,503,845 samples, 0.04%)</title><rect x="1018.3" y="117" width="0.5" height="15.0" fill="rgb(250,209,50)" rx="2" ry="2" />
<text  x="1021.30" y="127.5" ></text>
</g>
<g >
<title>asm_sysvec_apic_timer_interrupt (317,267,534 samples, 0.04%)</title><rect x="100.7" y="197" width="0.5" height="15.0" fill="rgb(232,127,30)" rx="2" ry="2" />
<text  x="103.71" y="207.5" ></text>
</g>
<g >
<title>__sysvec_apic_timer_interrupt (200,194,257 samples, 0.03%)</title><rect x="843.0" y="213" width="0.3" height="15.0" fill="rgb(242,173,41)" rx="2" ry="2" />
<text  x="846.01" y="223.5" ></text>
</g>
<g >
<title>void std::__fill_a&lt;unsigned int*, unsigned int&gt; (160,980,994 samples, 0.02%)</title><rect x="1154.9" y="165" width="0.2" height="15.0" fill="rgb(251,212,50)" rx="2" ry="2" />
<text  x="1157.86" y="175.5" ></text>
</g>
<g >
<title>__sysvec_apic_timer_interrupt (241,501,024 samples, 0.03%)</title><rect x="726.3" y="213" width="0.4" height="15.0" fill="rgb(242,173,41)" rx="2" ry="2" />
<text  x="729.27" y="223.5" ></text>
</g>
<g >
<title>read_hpet (120,731,105 samples, 0.02%)</title><rect x="1018.4" y="53" width="0.2" height="15.0" fill="rgb(241,166,39)" rx="2" ry="2" />
<text  x="1021.37" y="63.5" ></text>
</g>
<g >
<title>hrtimer_interrupt (317,267,534 samples, 0.04%)</title><rect x="100.7" y="149" width="0.5" height="15.0" fill="rgb(228,109,26)" rx="2" ry="2" />
<text  x="103.71" y="159.5" ></text>
</g>
<g >
<title>std::__array_traits&lt;unsigned int, 1024ul&gt;::_S_ref (120,696,995 samples, 0.02%)</title><rect x="12.5" y="245" width="0.2" height="15.0" fill="rgb(208,16,4)" rx="2" ry="2" />
<text  x="15.46" y="255.5" ></text>
</g>
<g >
<title>asm_sysvec_apic_timer_interrupt (281,772,762 samples, 0.04%)</title><rect x="726.3" y="245" width="0.4" height="15.0" fill="rgb(232,127,30)" rx="2" ry="2" />
<text  x="729.27" y="255.5" ></text>
</g>
<g >
<title>asm_sysvec_apic_timer_interrupt (482,674,647 samples, 0.07%)</title><rect x="1018.2" y="229" width="0.8" height="15.0" fill="rgb(232,127,30)" rx="2" ry="2" />
<text  x="1021.17" y="239.5" ></text>
</g>
<g >
<title>tick_nohz_highres_handler (381,958,848 samples, 0.05%)</title><rect x="1153.6" y="181" width="0.7" height="15.0" fill="rgb(215,50,11)" rx="2" ry="2" />
<text  x="1156.63" y="191.5" ></text>
</g>
<g >
<title>hrtimer_interrupt (80,514,458 samples, 0.01%)</title><rect x="1189.9" y="181" width="0.1" height="15.0" fill="rgb(228,109,26)" rx="2" ry="2" />
<text  x="1192.87" y="191.5" ></text>
</g>
<g >
<title>ktime_get (80,372,445 samples, 0.01%)</title><rect x="100.8" y="37" width="0.2" height="15.0" fill="rgb(207,10,2)" rx="2" ry="2" />
<text  x="103.84" y="47.5" ></text>
</g>
<g >
<title>hrtimer_interrupt (2,086,584,466 samples, 0.29%)</title><rect x="680.1" y="213" width="3.5" height="15.0" fill="rgb(228,109,26)" rx="2" ry="2" />
<text  x="683.11" y="223.5" ></text>
</g>
<g >
<title>sysvec_apic_timer_interrupt (2,086,584,466 samples, 0.29%)</title><rect x="680.1" y="245" width="3.5" height="15.0" fill="rgb(220,69,16)" rx="2" ry="2" />
<text  x="683.11" y="255.5" ></text>
</g>
<g >
<title>__sysvec_apic_timer_interrupt (381,958,848 samples, 0.05%)</title><rect x="1153.6" y="229" width="0.7" height="15.0" fill="rgb(242,173,41)" rx="2" ry="2" />
<text  x="1156.63" y="239.5" ></text>
</g>
<g >
<title>tick_do_update_jiffies64 (120,687,334 samples, 0.02%)</title><rect x="726.3" y="133" width="0.2" height="15.0" fill="rgb(208,14,3)" rx="2" ry="2" />
<text  x="729.27" y="143.5" ></text>
</g>
<g >
<title>handle_edge_irq (79,870,487 samples, 0.01%)</title><rect x="680.0" y="213" width="0.1" height="15.0" fill="rgb(220,69,16)" rx="2" ry="2" />
<text  x="682.98" y="223.5" ></text>
</g>
<g >
<title>task_tick_fair (80,474,524 samples, 0.01%)</title><rect x="1018.6" y="85" width="0.1" height="15.0" fill="rgb(217,57,13)" rx="2" ry="2" />
<text  x="1021.57" y="95.5" ></text>
</g>
<g >
<title>update_wall_time (120,657,062 samples, 0.02%)</title><rect x="843.0" y="117" width="0.2" height="15.0" fill="rgb(207,11,2)" rx="2" ry="2" />
<text  x="846.01" y="127.5" ></text>
</g>
<g >
<title>sched_clock_tick (140,481,074 samples, 0.02%)</title><rect x="1154.0" y="117" width="0.2" height="15.0" fill="rgb(240,161,38)" rx="2" ry="2" />
<text  x="1156.96" y="127.5" ></text>
</g>
<g >
<title>__gnu_cxx::__enable_if&lt;std::__is_scalar&lt;unsigned int&gt;::__value, void&gt;::__type std::__fill_a1&lt;unsigned int*, unsigned int&gt; (160,980,994 samples, 0.02%)</title><rect x="1154.9" y="149" width="0.2" height="15.0" fill="rgb(222,81,19)" rx="2" ry="2" />
<text  x="1157.86" y="159.5" ></text>
</g>
<g >
<title>task_tick_fair (80,491,674 samples, 0.01%)</title><rect x="682.8" y="117" width="0.1" height="15.0" fill="rgb(217,57,13)" rx="2" ry="2" />
<text  x="685.76" y="127.5" ></text>
</g>
<g >
<title>__hrtimer_run_queues (381,958,848 samples, 0.05%)</title><rect x="1153.6" y="197" width="0.7" height="15.0" fill="rgb(237,150,35)" rx="2" ry="2" />
<text  x="1156.63" y="207.5" ></text>
</g>
<g >
<title>sched_clock_tick (120,592,032 samples, 0.02%)</title><rect x="100.8" y="53" width="0.2" height="15.0" fill="rgb(240,161,38)" rx="2" ry="2" />
<text  x="103.84" y="63.5" ></text>
</g>
<g >
<title>tick_nohz_highres_handler (1,724,472,966 samples, 0.24%)</title><rect x="680.1" y="181" width="2.9" height="15.0" fill="rgb(215,50,11)" rx="2" ry="2" />
<text  x="683.11" y="191.5" ></text>
</g>
<g >
<title>sysvec_apic_timer_interrupt (281,772,762 samples, 0.04%)</title><rect x="726.3" y="229" width="0.4" height="15.0" fill="rgb(220,69,16)" rx="2" ry="2" />
<text  x="729.27" y="239.5" ></text>
</g>
<g >
<title>scheduler_tick (281,503,845 samples, 0.04%)</title><rect x="1018.3" y="101" width="0.5" height="15.0" fill="rgb(246,190,45)" rx="2" ry="2" />
<text  x="1021.30" y="111.5" ></text>
</g>
<g >
<title>ktime_get_update_offsets_now (160,912,480 samples, 0.02%)</title><rect x="683.0" y="197" width="0.2" height="15.0" fill="rgb(243,178,42)" rx="2" ry="2" />
<text  x="685.96" y="207.5" ></text>
</g>
<g >
<title>sched_clock_tick (361,395,541 samples, 0.05%)</title><rect x="682.2" y="117" width="0.6" height="15.0" fill="rgb(240,161,38)" rx="2" ry="2" />
<text  x="685.16" y="127.5" ></text>
</g>
<g >
<title>std::array&lt;unsigned int, 2048ul&gt;::operator[] (120,724,482 samples, 0.02%)</title><rect x="1154.5" y="277" width="0.2" height="15.0" fill="rgb(251,212,50)" rx="2" ry="2" />
<text  x="1157.46" y="287.5" ></text>
</g>
<g >
<title>__hrtimer_run_queues (160,890,269 samples, 0.02%)</title><rect x="726.3" y="181" width="0.2" height="15.0" fill="rgb(237,150,35)" rx="2" ry="2" />
<text  x="729.27" y="191.5" ></text>
</g>
<g >
<title>tick_nohz_highres_handler (80,514,458 samples, 0.01%)</title><rect x="1189.9" y="149" width="0.1" height="15.0" fill="rgb(215,50,11)" rx="2" ry="2" />
<text  x="1192.87" y="159.5" ></text>
</g>
<g >
<title>read_hpet (120,657,062 samples, 0.02%)</title><rect x="843.0" y="85" width="0.2" height="15.0" fill="rgb(241,166,39)" rx="2" ry="2" />
<text  x="846.01" y="95.5" ></text>
</g>
<g >
<title>__sysvec_apic_timer_interrupt (317,267,534 samples, 0.04%)</title><rect x="100.7" y="165" width="0.5" height="15.0" fill="rgb(242,173,41)" rx="2" ry="2" />
<text  x="103.71" y="175.5" ></text>
</g>
<g >
<title>perf_ibs_stop (80,498,937 samples, 0.01%)</title><rect x="682.0" y="85" width="0.2" height="15.0" fill="rgb(227,105,25)" rx="2" ry="2" />
<text  x="685.03" y="95.5" ></text>
</g>
<g >
<title>scheduler_tick (220,987,002 samples, 0.03%)</title><rect x="1153.9" y="133" width="0.4" height="15.0" fill="rgb(246,190,45)" rx="2" ry="2" />
<text  x="1156.90" y="143.5" ></text>
</g>
<g >
<title>tick_sched_do_timer (397,906,145 samples, 0.06%)</title><rect x="681.2" y="165" width="0.6" height="15.0" fill="rgb(227,104,25)" rx="2" ry="2" />
<text  x="684.17" y="175.5" ></text>
</g>
<g >
<title>operator* (556,073,387,323 samples, 77.78%)</title><rect x="101.3" y="277" width="917.8" height="15.0" fill="rgb(233,130,31)" rx="2" ry="2" />
<text  x="104.30" y="287.5" >operator*</text>
</g>
<g >
<title>common_interrupt (79,872,275 samples, 0.01%)</title><rect x="680.0" y="245" width="0.1" height="15.0" fill="rgb(215,46,11)" rx="2" ry="2" />
<text  x="682.98" y="255.5" ></text>
</g>
<g >
<title>double std::normal_distribution&lt;double&gt;::operator (53,548,386,134 samples, 7.49%)</title><rect x="12.9" y="261" width="88.4" height="15.0" fill="rgb(237,148,35)" rx="2" ry="2" />
<text  x="15.92" y="271.5" >double std..</text>
</g>
<g >
<title>ktime_get_update_offsets_now (120,678,419 samples, 0.02%)</title><rect x="1018.8" y="165" width="0.2" height="15.0" fill="rgb(243,178,42)" rx="2" ry="2" />
<text  x="1021.77" y="175.5" ></text>
</g>
<g >
<title>read_hpet (120,744,426 samples, 0.02%)</title><rect x="1153.7" y="101" width="0.2" height="15.0" fill="rgb(241,166,39)" rx="2" ry="2" />
<text  x="1156.70" y="111.5" ></text>
</g>
<g >
<title>update_process_times (682,934,499 samples, 0.10%)</title><rect x="681.8" y="149" width="1.2" height="15.0" fill="rgb(250,209,50)" rx="2" ry="2" />
<text  x="684.83" y="159.5" ></text>
</g>
<g >
<title>std::vector&lt;unsigned int, std::allocator&lt;unsigned int&gt; &gt;::_M_default_initialize (160,980,994 samples, 0.02%)</title><rect x="1154.9" y="261" width="0.2" height="15.0" fill="rgb(223,83,20)" rx="2" ry="2" />
<text  x="1157.86" y="271.5" ></text>
</g>
<g >
<title>update_process_times (156,432,606 samples, 0.02%)</title><rect x="100.8" y="85" width="0.2" height="15.0" fill="rgb(250,209,50)" rx="2" ry="2" />
<text  x="103.78" y="95.5" ></text>
</g>
<g >
<title>read_hpet (160,912,480 samples, 0.02%)</title><rect x="683.0" y="181" width="0.2" height="15.0" fill="rgb(241,166,39)" rx="2" ry="2" />
<text  x="685.96" y="191.5" ></text>
</g>
<g >
<title>read_hpet (80,435,213 samples, 0.01%)</title><rect x="1154.0" y="85" width="0.1" height="15.0" fill="rgb(241,166,39)" rx="2" ry="2" />
<text  x="1156.96" y="95.5" ></text>
</g>
<g >
<title>tick_nohz_highres_handler (160,890,269 samples, 0.02%)</title><rect x="726.3" y="165" width="0.2" height="15.0" fill="rgb(215,50,11)" rx="2" ry="2" />
<text  x="729.27" y="175.5" ></text>
</g>
<g >
<title>read_hpet (281,585,424 samples, 0.04%)</title><rect x="682.2" y="85" width="0.5" height="15.0" fill="rgb(241,166,39)" rx="2" ry="2" />
<text  x="685.23" y="95.5" ></text>
</g>
<g >
<title>ktime_get (80,435,213 samples, 0.01%)</title><rect x="1154.0" y="101" width="0.1" height="15.0" fill="rgb(207,10,2)" rx="2" ry="2" />
<text  x="1156.96" y="111.5" ></text>
</g>
<g >
<title>unsigned int* std::__uninitialized_default_n_a&lt;unsigned int*, unsigned long, unsigned int&gt; (160,980,994 samples, 0.02%)</title><rect x="1154.9" y="245" width="0.2" height="15.0" fill="rgb(233,132,31)" rx="2" ry="2" />
<text  x="1157.86" y="255.5" ></text>
</g>
<g >
<title>read_hpet (603,403,482 samples, 0.08%)</title><rect x="680.1" y="149" width="1.0" height="15.0" fill="rgb(241,166,39)" rx="2" ry="2" />
<text  x="683.11" y="159.5" ></text>
</g>
<g >
<title>double std::generate_canonical&lt;double, 53ul, std::random_device&gt; (53,548,386,134 samples, 7.49%)</title><rect x="12.9" y="229" width="88.4" height="15.0" fill="rgb(241,165,39)" rx="2" ry="2" />
<text  x="15.92" y="239.5" >double std..</text>
</g>
<g >
<title>hrtimer_interrupt (200,194,257 samples, 0.03%)</title><rect x="843.0" y="197" width="0.3" height="15.0" fill="rgb(228,109,26)" rx="2" ry="2" />
<text  x="846.01" y="207.5" ></text>
</g>
<g >
<title>std::array&lt;unsigned int, 2048ul&gt;::operator[] (160,872,147 samples, 0.02%)</title><rect x="12.7" y="261" width="0.2" height="15.0" fill="rgb(251,212,50)" rx="2" ry="2" />
<text  x="15.66" y="271.5" ></text>
</g>
<g >
<title>asm_sysvec_apic_timer_interrupt (381,961,138 samples, 0.05%)</title><rect x="1153.6" y="261" width="0.7" height="15.0" fill="rgb(232,127,30)" rx="2" ry="2" />
<text  x="1156.63" y="271.5" ></text>
</g>
<g >
<title>__libc_start_call_main (714,937,750,586 samples, 100.00%)</title><rect x="10.0" y="325" width="1180.0" height="15.0" fill="rgb(210,26,6)" rx="2" ry="2" />
<text  x="13.00" y="335.5" >__libc_start_call_main</text>
</g>
<g >
<title>Polynomial&lt; (1,327,452,624 samples, 0.19%)</title><rect x="10.7" y="277" width="2.2" height="15.0" fill="rgb(228,107,25)" rx="2" ry="2" />
<text  x="13.73" y="287.5" ></text>
</g>
<g >
<title>std::__array_traits&lt;unsigned int, 1024ul&gt;::_S_ref (26,161,815,156 samples, 3.66%)</title><rect x="683.6" y="261" width="43.1" height="15.0" fill="rgb(208,16,4)" rx="2" ry="2" />
<text  x="686.55" y="271.5" >std:..</text>
</g>
<g >
<title>ktime_get (160,988,485 samples, 0.02%)</title><rect x="683.3" y="165" width="0.3" height="15.0" fill="rgb(207,10,2)" rx="2" ry="2" />
<text  x="686.29" y="175.5" ></text>
</g>
<g >
<title>read_hpet (160,988,485 samples, 0.02%)</title><rect x="683.3" y="149" width="0.3" height="15.0" fill="rgb(241,166,39)" rx="2" ry="2" />
<text  x="686.29" y="159.5" ></text>
</g>
<g >
<title>__hrtimer_run_queues (196,669,914 samples, 0.03%)</title><rect x="100.7" y="133" width="0.3" height="15.0" fill="rgb(237,150,35)" rx="2" ry="2" />
<text  x="103.71" y="143.5" ></text>
</g>
<g >
<title>std::__array_traits&lt;unsigned int, 1024ul&gt;::_S_ref (106,407,683,398 samples, 14.88%)</title><rect x="843.4" y="245" width="175.6" height="15.0" fill="rgb(208,16,4)" rx="2" ry="2" />
<text  x="846.41" y="255.5" >std::__array_traits&lt;un..</text>
</g>
<g >
<title>tick_nohz_highres_handler (160,878,583 samples, 0.02%)</title><rect x="843.0" y="165" width="0.3" height="15.0" fill="rgb(215,50,11)" rx="2" ry="2" />
<text  x="846.01" y="175.5" ></text>
</g>
<g >
<title>__hrtimer_run_queues (80,514,458 samples, 0.01%)</title><rect x="1189.9" y="165" width="0.1" height="15.0" fill="rgb(237,150,35)" rx="2" ry="2" />
<text  x="1192.87" y="175.5" ></text>
</g>
<g >
<title>timekeeping_advance (120,687,334 samples, 0.02%)</title><rect x="726.3" y="101" width="0.2" height="15.0" fill="rgb(227,104,25)" rx="2" ry="2" />
<text  x="729.27" y="111.5" ></text>
</g>
<g >
<title>tick_sched_do_timer (120,687,334 samples, 0.02%)</title><rect x="726.3" y="149" width="0.2" height="15.0" fill="rgb(227,104,25)" rx="2" ry="2" />
<text  x="729.27" y="159.5" ></text>
</g>
<g >
<title>hrtimer_update_next_event (80,357,489 samples, 0.01%)</title><rect x="101.0" y="133" width="0.2" height="15.0" fill="rgb(225,92,22)" rx="2" ry="2" />
<text  x="104.04" y="143.5" ></text>
</g>
<g >
<title>tick_program_event (160,988,485 samples, 0.02%)</title><rect x="683.3" y="197" width="0.3" height="15.0" fill="rgb(241,166,39)" rx="2" ry="2" />
<text  x="686.29" y="207.5" ></text>
</g>
<g >
<title>hrtimer_interrupt (482,674,647 samples, 0.07%)</title><rect x="1018.2" y="181" width="0.8" height="15.0" fill="rgb(228,109,26)" rx="2" ry="2" />
<text  x="1021.17" y="191.5" ></text>
</g>
<g >
<title>asm_sysvec_apic_timer_interrupt (80,514,458 samples, 0.01%)</title><rect x="1189.9" y="229" width="0.1" height="15.0" fill="rgb(232,127,30)" rx="2" ry="2" />
<text  x="1192.87" y="239.5" ></text>
</g>
<g >
<title>update_load_avg (80,474,524 samples, 0.01%)</title><rect x="1018.6" y="69" width="0.1" height="15.0" fill="rgb(240,165,39)" rx="2" ry="2" />
<text  x="1021.57" y="79.5" ></text>
</g>
<g >
<title>std::__array_traits&lt;unsigned int, 2048ul&gt;::_S_ref (80,486,869 samples, 0.01%)</title><rect x="12.3" y="261" width="0.2" height="15.0" fill="rgb(213,38,9)" rx="2" ry="2" />
<text  x="15.32" y="271.5" ></text>
</g>
<g >
<title>__hrtimer_run_queues (1,724,472,966 samples, 0.24%)</title><rect x="680.1" y="197" width="2.9" height="15.0" fill="rgb(237,150,35)" rx="2" ry="2" />
<text  x="683.11" y="207.5" ></text>
</g>
<g >
<title>unsigned int* std::fill_n&lt;unsigned int*, unsigned long, unsigned int&gt; (160,980,994 samples, 0.02%)</title><rect x="1154.9" y="197" width="0.2" height="15.0" fill="rgb(219,67,16)" rx="2" ry="2" />
<text  x="1157.86" y="207.5" ></text>
</g>
<g >
<title>unsigned int* std::__uninitialized_default_n&lt;unsigned int*, unsigned long&gt; (160,980,994 samples, 0.02%)</title><rect x="1154.9" y="229" width="0.2" height="15.0" fill="rgb(222,78,18)" rx="2" ry="2" />
<text  x="1157.86" y="239.5" ></text>
</g>
<g >
<title>std::__detail::_Adaptor&lt;std::random_device, double&gt;::operator (53,548,386,134 samples, 7.49%)</title><rect x="12.9" y="245" width="88.4" height="15.0" fill="rgb(254,225,54)" rx="2" ry="2" />
<text  x="15.92" y="255.5" >std::__det..</text>
</g>
<g >
<title>read_hpet (120,687,334 samples, 0.02%)</title><rect x="726.3" y="85" width="0.2" height="15.0" fill="rgb(241,166,39)" rx="2" ry="2" />
<text  x="729.27" y="95.5" ></text>
</g>
<g >
<title>scheduler_tick (156,432,606 samples, 0.02%)</title><rect x="100.8" y="69" width="0.2" height="15.0" fill="rgb(246,190,45)" rx="2" ry="2" />
<text  x="103.78" y="79.5" ></text>
</g>
<g >
<title>std::array&lt;unsigned int, 1024ul&gt;::operator[] (177,137,442,370 samples, 24.78%)</title><rect x="726.7" y="261" width="292.4" height="15.0" fill="rgb(246,190,45)" rx="2" ry="2" />
<text  x="729.73" y="271.5" >std::array&lt;unsigned int, 1024ul&gt;::opera..</text>
</g>
<g >
<title>std::vector&lt;unsigned int, std::allocator&lt;unsigned int&gt; &gt;::operator[] (120,700,312 samples, 0.02%)</title><rect x="1154.7" y="277" width="0.2" height="15.0" fill="rgb(238,155,37)" rx="2" ry="2" />
<text  x="1157.66" y="287.5" ></text>
</g>
<g >
<title>__hrtimer_run_queues (361,996,228 samples, 0.05%)</title><rect x="1018.2" y="165" width="0.6" height="15.0" fill="rgb(237,150,35)" rx="2" ry="2" />
<text  x="1021.17" y="175.5" ></text>
</g>
<g >
<title>std::vector&lt;unsigned int, std::allocator&lt;unsigned int&gt; &gt;::vector (160,980,994 samples, 0.02%)</title><rect x="1154.9" y="277" width="0.2" height="15.0" fill="rgb(229,111,26)" rx="2" ry="2" />
<text  x="1157.86" y="287.5" ></text>
</g>
<g >
<title>EncryptManyTime (714,938,363,434 samples, 100.00%)</title><rect x="10.0" y="341" width="1180.0" height="15.0" fill="rgb(233,128,30)" rx="2" ry="2" />
<text  x="13.00" y="351.5" >EncryptManyTime</text>
</g>
<g >
<title>asm_sysvec_apic_timer_interrupt (2,086,584,466 samples, 0.29%)</title><rect x="680.1" y="261" width="3.5" height="15.0" fill="rgb(232,127,30)" rx="2" ry="2" />
<text  x="683.11" y="271.5" ></text>
</g>
<g >
<title>tick_sched_handle (682,934,499 samples, 0.10%)</title><rect x="681.8" y="165" width="1.2" height="15.0" fill="rgb(219,68,16)" rx="2" ry="2" />
<text  x="684.83" y="175.5" ></text>
</g>
<g >
<title>update_wall_time (120,744,426 samples, 0.02%)</title><rect x="1153.7" y="133" width="0.2" height="15.0" fill="rgb(207,11,2)" rx="2" ry="2" />
<text  x="1156.70" y="143.5" ></text>
</g>
<g >
<title>sched_clock_tick (120,731,105 samples, 0.02%)</title><rect x="1018.4" y="85" width="0.2" height="15.0" fill="rgb(240,161,38)" rx="2" ry="2" />
<text  x="1021.37" y="95.5" ></text>
</g>
<g >
<title>tick_do_update_jiffies64 (120,657,062 samples, 0.02%)</title><rect x="843.0" y="133" width="0.2" height="15.0" fill="rgb(208,14,3)" rx="2" ry="2" />
<text  x="846.01" y="143.5" ></text>
</g>
</g>
</svg>
